<svg width="47" height="47" viewBox="0 0 47 47" fill="none" xmlns="http://www.w3.org/2000/svg">
<g clip-path="url(#clip0)">
<path d="M37.2632 6.15787H33.0112V4.25566C33.0112 3.64023 32.3399 3.36051 31.7244 3.36051H28.4235C27.6403 1.12259 25.6821 0.00362255 23.4442 0.00362255C21.2309 -0.0795849 19.2177 1.27754 18.4648 3.36051H15.2198C14.6044 3.36051 13.9889 3.64023 13.9889 4.25566V6.15787H9.73678C7.21699 6.18475 5.15555 8.17252 5.03711 10.6896V42.7478C5.03711 45.2096 7.27504 46.9999 9.73678 46.9999H37.2632C39.725 46.9999 41.9629 45.2096 41.9629 42.7478V10.6897C41.8445 8.17252 39.783 6.18475 37.2632 6.15787ZM16.2267 5.59844H19.3039C19.8411 5.5329 20.2725 5.12425 20.367 4.59138C20.6983 3.14848 21.9642 2.11272 23.4442 2.07374C24.9104 2.11818 26.1572 3.15715 26.4653 4.59138C26.5657 5.14267 27.0256 5.55657 27.5843 5.59844H30.7734V10.0743H16.2267V5.59844ZM39.725 42.7479C39.725 43.9788 38.4941 44.7621 37.2632 44.7621H9.73678C8.50591 44.7621 7.27504 43.9788 7.27504 42.7479V10.6897C7.38919 9.40853 8.45065 8.41935 9.73678 8.3959H13.9888V11.2493C14.0479 11.8762 14.5909 12.3451 15.2197 12.3123H31.7243C32.3647 12.3473 32.9247 11.8848 33.0111 11.2493V8.39579H37.2631C38.5492 8.41935 39.6107 9.40842 39.7249 10.6896V42.7479H39.725Z" fill="white"/>
<path d="M17.6254 24.9565L14.0447 28.3692L12.5341 26.8027C12.1145 26.3603 11.4178 26.3354 10.9676 26.7468C10.5342 27.2008 10.5342 27.9152 10.9676 28.3692L13.2614 30.7191C13.4599 30.9414 13.7467 31.0643 14.0446 31.0548C14.3398 31.0506 14.6213 30.9299 14.8279 30.7191L19.1918 26.579C19.2143 26.5584 19.2358 26.5368 19.2564 26.5144C19.6532 26.0817 19.6243 25.4093 19.1918 25.0125C18.7723 24.57 18.0756 24.5451 17.6254 24.9565Z" fill="white"/>
<path d="M35.2491 27.418H22.3811C21.7631 27.418 21.2621 27.9189 21.2621 28.5369C21.2621 29.1549 21.7631 29.6559 22.3811 29.6559H35.2491C35.8671 29.6559 36.3681 29.1549 36.3681 28.5369C36.3681 27.9189 35.8671 27.418 35.2491 27.418Z" fill="white"/>
<path d="M35.2491 18.4663H22.3811C21.7631 18.4663 21.2621 18.9673 21.2621 19.5853C21.2621 20.2033 21.7631 20.7042 22.3811 20.7042H35.2491C35.8671 20.7042 36.3681 20.2033 36.3681 19.5853C36.3681 18.9673 35.8671 18.4663 35.2491 18.4663Z" fill="white"/>
<path d="M17.6254 33.9081L14.0447 37.3209L12.5341 35.7543C12.1145 35.3119 11.4178 35.2871 10.9676 35.6984C10.5342 36.1525 10.5342 36.8669 10.9676 37.3209L13.2614 39.6708C13.4599 39.8931 13.7467 40.016 14.0446 40.0065C14.3398 40.0023 14.6213 39.8816 14.8279 39.6708L19.1918 35.5306C19.2143 35.5101 19.2358 35.4884 19.2564 35.4661C19.6532 35.0334 19.6243 34.361 19.1918 33.9641C18.7723 33.5216 18.0756 33.4968 17.6254 33.9081Z" fill="white"/>
<path d="M35.2491 36.3699H22.3811C21.7631 36.3699 21.2621 36.8708 21.2621 37.4888C21.2621 38.1068 21.7631 38.6078 22.3811 38.6078H35.2491C35.8671 38.6078 36.3681 38.1068 36.3681 37.4888C36.3681 36.8708 35.8671 36.3699 35.2491 36.3699Z" fill="white"/>
<path d="M11.5271 23.6138H18.1849C18.2232 23.6158 18.2616 23.6158 18.2999 23.6138C18.8861 23.582 19.3356 23.081 19.3038 22.4948V16.4525C19.3038 15.8345 18.8029 15.3335 18.1849 15.3335H11.5271C10.9091 15.3335 10.4081 15.8345 10.4081 16.4525V22.4948C10.4061 22.5331 10.4061 22.5715 10.4081 22.6098C10.4399 23.1961 10.9409 23.6456 11.5271 23.6138ZM12.6461 17.5714H17.0659V21.3758H12.6461V17.5714Z" fill="white"/>
</g>
<defs>
<clipPath id="clip0">
<rect width="47" height="47" fill="white"/>
</clipPath>
</defs>
</svg>
