<svg width="49" height="48" viewBox="0 0 49 48" fill="none" xmlns="http://www.w3.org/2000/svg">
<path d="M16.775 22.4728C15.1359 22.4728 13.8024 23.7791 13.8024 25.3848C13.8024 26.9904 15.1359 28.2969 16.775 28.2969C18.4141 28.2969 19.7476 26.9904 19.7476 25.3848C19.7476 23.7791 18.4141 22.4728 16.775 22.4728ZM16.775 26.888C15.929 26.888 15.2406 26.2137 15.2406 25.3849C15.2406 24.5561 15.9289 23.8819 16.775 23.8819C17.6211 23.8819 18.3094 24.5561 18.3094 25.3849C18.3094 26.2136 17.621 26.888 16.775 26.888Z" fill="white"/>
<path d="M29.2523 25.3848C29.2523 26.9904 30.5859 28.2969 32.225 28.2969C33.8641 28.2969 35.1976 26.9904 35.1976 25.3848C35.1976 23.7791 33.8641 22.4728 32.225 22.4728C30.5859 22.4728 29.2523 23.7791 29.2523 25.3848ZM32.225 23.8818C33.0711 23.8818 33.7594 24.556 33.7594 25.3848C33.7594 26.2136 33.0711 26.8879 32.225 26.8879C31.379 26.8879 30.6906 26.2136 30.6906 25.3848C30.6906 24.556 31.379 23.8818 32.225 23.8818Z" fill="white"/>
<path d="M48.918 35.294L45.6759 16.3813C45.6738 16.3692 45.6714 16.3572 45.6688 16.3453C45.2124 13.2093 43.0582 10.6435 40.1999 9.49256V8.18503C40.1999 7.01972 39.2321 6.07162 38.0425 6.07162H35.3305C34.1409 6.07162 33.1731 7.01972 33.1731 8.18503V9.59934C32.2163 10.0202 31.3342 10.6079 30.5646 11.3514H18.4353C17.6656 10.6079 16.7835 10.0202 15.8268 9.59934V8.18503C15.8268 7.01972 14.859 6.07162 13.6694 6.07162H10.9574C9.76783 6.07162 8.79998 7.01972 8.79998 8.18503V9.49266C5.942 10.6435 3.78791 13.209 3.33131 16.3447C3.32854 16.3567 3.32615 16.3689 3.32404 16.3813L2.27992 22.4719C2.21417 22.8556 2.47831 23.2189 2.87003 23.2833C3.26174 23.3474 3.63259 23.0889 3.69834 22.7052L4.73241 16.6726C4.73901 16.6469 4.74428 16.6207 4.74791 16.594C5.24844 12.9754 8.44043 10.2466 12.173 10.2466C14.156 10.2466 16.0056 10.9912 17.4141 12.3463V13.3085C17.4141 14.7327 18.597 15.8915 20.0509 15.8915H23.0617C23.4588 15.8915 23.7808 15.5761 23.7808 15.187C23.7808 14.7979 23.4588 14.4826 23.0617 14.4826H20.0509C19.39 14.4826 18.8524 13.9559 18.8524 13.3085V12.7601H30.1474V13.3085C30.1474 13.9559 29.6098 14.4826 28.9488 14.4826H25.9381C25.5409 14.4826 25.219 14.798 25.219 15.187C25.219 15.5761 25.5409 15.8915 25.9381 15.8915H28.9488C30.4028 15.8915 31.5857 14.7327 31.5857 13.3085V12.3463C32.9942 10.9911 34.8438 10.2466 36.8267 10.2466C40.5593 10.2466 43.7514 12.9754 44.2519 16.594C44.2555 16.6204 44.2606 16.6462 44.2672 16.6717L47.4995 35.5272C47.8386 37.5057 46.7544 39.4247 44.8629 40.1938C43.7306 40.6543 42.4923 40.634 41.3762 40.1369C40.2601 39.6398 39.4305 38.7392 39.0403 37.6007L38.3783 35.6697C38.2519 35.3009 37.8441 35.102 37.4676 35.2262C37.0911 35.35 36.8884 35.7494 37.0148 36.1182L37.6768 38.0492C38.1879 39.5401 39.3193 40.7686 40.7809 41.4195C41.5418 41.7583 42.3641 41.9282 43.1871 41.9282C43.9449 41.9282 44.7034 41.7841 45.4143 41.495C47.9279 40.4731 49.3686 37.9231 48.918 35.294ZM10.2383 9.04828V8.18503C10.2383 7.79653 10.5609 7.48059 10.9574 7.48059H13.6694C14.066 7.48059 14.3885 7.79662 14.3885 8.18503V9.10753C13.6743 8.93016 12.9321 8.83781 12.1731 8.83781C11.511 8.83781 10.8635 8.91131 10.2383 9.04828ZM34.6115 9.10753V8.18503C34.6115 7.79653 34.9341 7.48059 35.3306 7.48059H38.0426C38.4391 7.48059 38.7617 7.79662 38.7617 8.18503V9.04828C38.1364 8.91131 37.489 8.83781 36.8268 8.83781C36.0679 8.83781 35.3256 8.93016 34.6115 9.10753Z" fill="white"/>
<path d="M37.4619 32.997L36.1838 29.2689C36.1109 29.0561 35.9387 28.8901 35.7204 28.8219C35.5022 28.7539 35.2637 28.7916 35.0784 28.9239C34.2976 29.4815 33.3735 29.7761 32.406 29.7761C31.1601 29.7761 29.9974 29.2908 29.132 28.4095C28.9964 28.2714 28.8093 28.1934 28.6138 28.1934H20.3863C20.1907 28.1934 20.0035 28.2715 19.868 28.4095C19.0026 29.2909 17.8398 29.7761 16.5939 29.7761C15.6265 29.7761 14.7023 29.4814 13.9215 28.9239C13.7364 28.7917 13.498 28.7539 13.2796 28.8219C13.0612 28.8901 12.8892 29.0561 12.8162 29.2689L9.9597 37.6008C9.56942 38.7393 8.73987 39.6399 7.62378 40.137C6.50759 40.6341 5.26938 40.6541 4.13702 40.1939C2.24545 39.4248 1.16133 37.5058 1.5005 35.5273L3.22172 25.4867C3.28747 25.103 3.02333 24.7397 2.63161 24.6753C2.23942 24.6114 1.86905 24.8696 1.8033 25.2533L0.0820836 35.294C-0.368582 37.9231 1.07213 40.4732 3.58577 41.4951C4.29685 41.7843 5.05501 41.9285 5.81298 41.9284C6.63574 41.9284 7.45831 41.7585 8.21915 41.4197C9.68072 40.7688 10.8121 39.5403 11.3233 38.0494L13.8928 30.5546C14.7251 30.9691 15.6438 31.1852 16.5941 31.1852C18.1298 31.1852 19.5693 30.6254 20.6815 29.6024H28.3189C29.431 30.6253 30.8705 31.1852 32.4062 31.1852C33.3565 31.1852 34.2752 30.9692 35.1075 30.5546L36.0986 33.4456C36.225 33.8144 36.6326 34.0133 37.0093 33.8891C37.3856 33.7652 37.5883 33.3658 37.4619 32.997Z" fill="white"/>
<path d="M12.2309 13.2158C10.9931 13.2158 9.98602 14.2023 9.98602 15.4148V15.5743H9.82323C8.58541 15.5743 7.57832 16.5608 7.57832 17.7734C7.57832 18.986 8.58531 19.9725 9.82323 19.9725H9.98602V20.132C9.98602 21.3445 10.9931 22.3311 12.2309 22.3311C13.4688 22.3311 14.4758 21.3445 14.4758 20.132V19.9725H14.6386C15.8764 19.9725 16.8835 18.986 16.8835 17.7734C16.8835 16.5608 15.8765 15.5743 14.6386 15.5743H14.4758V15.4148C14.4757 14.2023 13.4688 13.2158 12.2309 13.2158ZM14.6386 16.9833C15.0834 16.9833 15.4452 17.3377 15.4452 17.7734C15.4452 18.2091 15.0834 18.5635 14.6386 18.5635H13.7566C13.3595 18.5635 13.0375 18.8789 13.0375 19.268V20.132C13.0375 20.5677 12.6757 20.9221 12.2309 20.9221C11.7862 20.9221 11.4242 20.5676 11.4242 20.132V19.268C11.4242 18.8789 11.1023 18.5635 10.7051 18.5635H9.82323C9.3785 18.5635 9.01664 18.2091 9.01664 17.7734C9.01664 17.3377 9.3785 16.9833 9.82323 16.9833H10.7051C11.1023 16.9833 11.4242 16.6679 11.4242 16.2788V15.4148C11.4242 14.9791 11.7861 14.6247 12.2309 14.6247C12.6757 14.6247 13.0375 14.9792 13.0375 15.4148V16.2788C13.0375 16.6679 13.3595 16.9833 13.7566 16.9833H14.6386Z" fill="white"/>
<path d="M37.2615 12.2537C36.1035 12.2537 35.1614 13.1766 35.1614 14.3109C35.1614 15.4453 36.1035 16.3682 37.2615 16.3682C38.4196 16.3682 39.3617 15.4453 39.3617 14.3109C39.3617 13.1766 38.4196 12.2537 37.2615 12.2537ZM37.2615 14.9593C36.8966 14.9593 36.5998 14.6684 36.5998 14.311C36.5998 13.9537 36.8966 13.6627 37.2615 13.6627C37.6265 13.6627 37.9233 13.9537 37.9233 14.311C37.9233 14.6684 37.6265 14.9593 37.2615 14.9593Z" fill="white"/>
<path d="M37.2615 19.1786C36.1035 19.1786 35.1614 20.1015 35.1614 21.2359C35.1614 22.3702 36.1035 23.293 37.2615 23.293C38.4196 23.293 39.3617 22.3702 39.3617 21.2358C39.3617 20.1015 38.4196 19.1786 37.2615 19.1786ZM37.2615 21.8842C36.8966 21.8842 36.5998 21.5932 36.5998 21.2359C36.5998 20.8784 36.8966 20.5876 37.2615 20.5876C37.6265 20.5876 37.9233 20.8785 37.9233 21.2359C37.9233 21.5932 37.6265 21.8842 37.2615 21.8842Z" fill="white"/>
<path d="M42.8964 17.7734C42.8964 16.639 41.9543 15.7162 40.7962 15.7162C39.6382 15.7162 38.6961 16.639 38.6961 17.7734C38.6961 18.9078 39.6382 19.8307 40.7962 19.8307C41.9543 19.8307 42.8964 18.9078 42.8964 17.7734ZM40.1345 17.7734C40.1345 17.4159 40.4313 17.1251 40.7962 17.1251C41.1612 17.1251 41.458 17.416 41.458 17.7734C41.458 18.1308 41.1612 18.4217 40.7962 18.4217C40.4313 18.4217 40.1345 18.1309 40.1345 17.7734Z" fill="white"/>
<path d="M31.6269 17.7734C31.6269 18.9078 32.569 19.8307 33.727 19.8307C34.885 19.8307 35.827 18.9078 35.827 17.7734C35.827 16.639 34.8849 15.7162 33.727 15.7162C32.569 15.7162 31.6269 16.639 31.6269 17.7734ZM34.3888 17.7734C34.3888 18.1309 34.0919 18.4217 33.727 18.4217C33.3621 18.4217 33.0652 18.1308 33.0652 17.7734C33.0652 17.416 33.3621 17.1251 33.727 17.1251C34.0919 17.125 34.3888 17.4159 34.3888 17.7734Z" fill="white"/>
<path d="M22.3765 20.5013C22.7737 20.5013 23.0957 20.186 23.0957 19.7969C23.0957 19.4078 22.7737 19.0925 22.3765 19.0925H20.2241C19.8269 19.0925 19.505 19.4078 19.505 19.7969C19.505 20.186 19.8269 20.5013 20.2241 20.5013H22.3765Z" fill="white"/>
<path d="M28.7759 19.0925H26.6234C26.2262 19.0925 25.9043 19.4078 25.9043 19.7969C25.9043 20.186 26.2262 20.5013 26.6234 20.5013H28.7759C29.173 20.5013 29.495 20.186 29.495 19.7969C29.495 19.4078 29.173 19.0925 28.7759 19.0925Z" fill="white"/>
</svg>
