<svg width="66" height="66" viewBox="0 0 66 66" fill="none" xmlns="http://www.w3.org/2000/svg">
<path d="M33 0C14.7608 0 0 14.7594 0 33C0 51.2393 14.7594 66 33 66C51.2392 66 66 51.2406 66 33C66 14.7607 51.2406 0 33 0ZM33 60.8438C17.6107 60.8438 5.15625 48.3905 5.15625 33C5.15625 17.6105 17.6095 5.15625 33 5.15625C48.3893 5.15625 60.8438 17.6095 60.8438 33C60.8438 48.3895 48.3905 60.8438 33 60.8438Z" fill="white"/>
<path d="M44.2903 40.6444L36.6459 33L44.2903 25.3556C45.2971 24.3488 45.2972 22.7165 44.2905 21.7096C43.2834 20.7027 41.6511 20.7028 40.6445 21.7096L33 29.354L25.3554 21.7096C24.3488 20.7027 22.7162 20.7027 21.7094 21.7096C20.7027 22.7165 20.7027 24.3488 21.7096 25.3556L29.354 33L21.7096 40.6444C20.7027 41.6513 20.7026 43.2836 21.7094 44.2904C22.7166 45.2974 24.3489 45.297 25.3554 44.2904L33 36.646L40.6445 44.2904C41.651 45.2971 43.2836 45.2972 44.2905 44.2904C45.2973 43.2835 45.2972 41.6511 44.2903 40.6444Z" fill="white"/>
</svg>
