<svg width="49" height="48" viewBox="0 0 49 48" fill="none" xmlns="http://www.w3.org/2000/svg">
<path d="M24.5 0C10.9692 0 0 10.7453 0 24C0 37.2547 10.9692 48 24.5 48C38.0308 48 49 37.2547 49 24C48.9848 10.7516 38.0244 0.0148438 24.5 0ZM45.6891 32.4078L38.7215 33.5855C39.519 30.7203 39.9497 27.7691 40.0035 24.8H47.3463C47.2542 27.4117 46.6932 29.9871 45.6891 32.4078ZM1.65367 24.8H8.99649C9.05033 27.7691 9.48099 30.7203 10.2785 33.5855L3.31093 32.4078C2.30684 29.9871 1.74578 27.4117 1.65367 24.8ZM3.31093 15.5922L10.2785 14.4145C9.48099 17.2797 9.05033 20.2309 8.99649 23.2H1.65367C1.74578 20.5883 2.30684 18.0129 3.31093 15.5922ZM25.3167 12.8449C28.2512 12.8816 31.1785 13.1434 34.0715 13.6281L36.9542 14.1152C37.8398 17.0676 38.3163 20.123 38.371 23.2H25.3167V12.8449ZM34.3498 12.0512C31.3651 11.5516 28.3445 11.2816 25.3167 11.2449V1.64492C29.9985 2.08555 34.0655 6.28477 36.3704 12.3961L34.3498 12.0512ZM23.6833 11.2449C20.6555 11.2816 17.6357 11.5516 14.651 12.0512L12.6296 12.3938C14.9345 6.28086 19.0015 2.08008 23.6833 1.64141V11.2449ZM14.9293 13.6281C17.8219 13.1434 20.7488 12.8816 23.6833 12.8449V23.2H10.629C10.6837 20.123 11.1602 17.0676 12.0458 14.1152L14.9293 13.6281ZM10.629 24.8H23.6833V35.1551C20.7488 35.1184 17.8215 34.8566 14.9285 34.3719L12.0458 33.8848C11.1602 30.9324 10.6837 27.877 10.629 24.8ZM14.6502 35.9488C17.6349 36.4492 20.6551 36.7203 23.6833 36.7594V46.3594C19.0015 45.9184 14.9345 41.7191 12.6296 35.6078L14.6502 35.9488ZM25.3167 36.7594C28.3445 36.7203 31.3643 36.4492 34.349 35.9488L36.3704 35.6063C34.0655 41.7191 29.9985 45.9199 25.3167 46.3586V36.7594ZM34.0707 34.3719C31.1781 34.8566 28.2512 35.1184 25.3167 35.1551V24.8H38.371C38.3163 27.877 37.8398 30.9324 36.9542 33.8848L34.0707 34.3719ZM40.0035 23.2C39.9497 20.2309 39.519 17.2797 38.7215 14.4145L45.6891 15.5922C46.6932 18.0129 47.2542 20.5883 47.3463 23.2H40.0035ZM44.8628 13.8289L38.184 12.7C36.9833 8.86289 34.737 5.41914 31.6865 2.73984C37.3908 4.60469 42.1213 8.58555 44.8628 13.8289ZM17.3135 2.73984C14.263 5.41914 12.0167 8.86289 10.816 12.7L4.13717 13.8289C6.87866 8.58555 11.6092 4.60469 17.3135 2.73984ZM4.13717 34.1711L10.816 35.3C12.0167 39.1371 14.263 42.5809 17.3135 45.2602C11.6092 43.3953 6.87866 39.4145 4.13717 34.1711ZM31.6865 45.2602C34.737 42.5809 36.9833 39.1371 38.184 35.3L44.8628 34.1711C42.1213 39.4145 37.3908 43.3953 31.6865 45.2602Z" fill="white"/>
</svg>
