<svg width="53" height="47" viewBox="0 0 53 47" fill="none" xmlns="http://www.w3.org/2000/svg">
<path d="M23.8676 3.1333C23.3801 3.1333 22.9887 3.48424 22.9887 3.9166C22.9887 4.34897 23.3879 4.69991 23.8764 4.69991C24.3649 4.69991 24.7597 4.34897 24.7597 3.9166C24.7597 3.48424 24.3649 3.1333 23.8764 3.1333H23.8676Z" fill="white"/>
<path d="M24.7332 42.3C24.7332 43.164 25.5256 43.8667 26.5 43.8667C27.4742 43.8667 28.2667 43.1641 28.2667 42.3C28.2667 41.436 27.4743 40.7333 26.5 40.7333C25.5257 40.7333 24.7332 41.436 24.7332 42.3Z" fill="white"/>
<path d="M13.25 36.0333C13.7375 36.0333 14.1333 35.6824 14.1333 35.25V3.9167C14.1333 2.77456 15.4953 1.5667 16.7833 1.5667H36.2166C37.5045 1.5667 38.8666 2.77456 38.8666 3.9167C38.8666 4.34906 39.2623 4.7 39.7499 4.7C40.2374 4.7 40.6332 4.34906 40.6332 3.9167C40.6333 1.9035 38.4868 0 36.2167 0H16.7833C14.5131 0 12.3666 1.9035 12.3666 3.9167V35.25C12.3667 35.6824 12.7624 36.0333 13.25 36.0333Z" fill="white"/>
<path d="M27.3833 3.1333C26.8957 3.1333 26.5 3.48424 26.5 3.9166C26.5 4.34897 26.8957 4.69991 27.3833 4.69991H30.9166C31.4042 4.69991 31.7999 4.34897 31.7999 3.9166C31.7999 3.48424 31.4042 3.1333 30.9166 3.1333H27.3833Z" fill="white"/>
<path d="M34.45 14.1C34.6762 14.1 34.9023 14.0232 35.0745 13.8705C35.4199 13.5642 35.4199 13.0691 35.0745 12.7629L33.3078 11.1962C32.9624 10.8899 32.4041 10.8899 32.0588 11.1962C31.7135 11.5025 31.7135 11.9976 32.0588 12.3038L33.8255 13.8705C33.9977 14.0232 34.2238 14.1 34.45 14.1Z" fill="white"/>
<path d="M26.7587 11.1962C26.4134 11.5025 26.4134 11.9976 26.7587 12.3038L33.8254 18.5705C33.9977 18.7233 34.2239 18.8 34.4499 18.8C34.6761 18.8 34.9022 18.7233 35.0744 18.5705C35.4199 18.2642 35.4199 17.7691 35.0744 17.4629L28.0077 11.1962C27.6624 10.8899 27.1042 10.8899 26.7587 11.1962Z" fill="white"/>
<path d="M39.75 6.26669H16.7833C16.2957 6.26669 15.9 6.61763 15.9 7.05C15.9 7.48236 16.2957 7.8333 16.7833 7.8333H38.8666V43.0833C38.8666 44.2254 37.5045 45.4333 36.2166 45.4333H16.7833C15.4953 45.4333 14.1333 44.2254 14.1333 43.0833V39.1666H36.2166C36.7041 39.1666 37.0999 38.8157 37.0999 38.3833C37.0999 37.9509 36.7041 37.6 36.2166 37.6H13.25C12.7624 37.6 12.3667 37.9509 12.3667 38.3833V43.0833C12.3667 45.0965 14.5132 47 16.7834 47H36.2167C38.4869 47 40.6334 45.0965 40.6334 43.0833V7.05C40.6333 6.61763 40.2375 6.26669 39.75 6.26669Z" fill="white"/>
</svg>
