<svg width="41" height="41" viewBox="0 0 41 41" fill="none" xmlns="http://www.w3.org/2000/svg">
<path d="M39.1101 39.3984H37.3538V13.8964C37.3538 12.7094 36.388 11.7438 35.2011 11.7438H31.2753C30.0883 11.7438 29.1227 12.7095 29.1227 13.8964V39.3984H24.663V25.4508C24.663 24.2638 23.6973 23.2982 22.5103 23.2982H18.5846C17.3976 23.2982 16.4319 24.2639 16.4319 25.4508V39.3984H11.9722V32.1751C11.9722 30.9881 11.0064 30.0224 9.81953 30.0224H5.8937C4.7067 30.0224 3.74104 30.9881 3.74104 32.1751V39.3984H1.88995C1.44768 39.3984 1.08917 39.7569 1.08917 40.1992C1.08917 40.6415 1.44768 41 1.88995 41H39.1101C39.5524 41 39.9109 40.6415 39.9109 40.1992C39.9109 39.7569 39.5524 39.3984 39.1101 39.3984ZM10.3705 39.3984H5.34252V32.1751C5.34252 31.8712 5.58972 31.624 5.89362 31.624H9.81937C10.1233 31.624 10.3705 31.8712 10.3705 32.1751V39.3984ZM23.0613 39.3984H18.0334V25.4508C18.0334 25.1469 18.2806 24.8997 18.5845 24.8997H22.5102C22.814 24.8997 23.0613 25.1469 23.0613 25.4508V39.3984ZM35.7522 39.3984H30.7242V13.8964C30.7242 13.5925 30.9714 13.3453 31.2753 13.3453H35.2011C35.505 13.3453 35.7522 13.5925 35.7522 13.8964V39.3984Z" fill="white"/>
<path d="M37.3518 0.842102C37.3631 0.623568 37.2862 0.401352 37.1193 0.234469C36.9524 0.0675859 36.7302 -0.00936914 36.5117 0.00192188C36.4988 0.00136133 36.486 0 36.4729 0H31.6282C31.1859 0 30.8274 0.35851 30.8274 0.800781C30.8274 1.24305 31.1859 1.60156 31.6282 1.60156H34.6197L26.7034 9.51793L23.7181 6.53261C23.5679 6.38247 23.3642 6.29806 23.1518 6.29806C22.9395 6.29806 22.7357 6.38247 22.5856 6.53261L8.19003 20.9283C7.87733 21.241 7.87733 21.748 8.19003 22.0608C8.34643 22.217 8.55135 22.2952 8.75627 22.2952C8.96119 22.2952 9.16619 22.217 9.3225 22.0606L23.1518 8.23123L26.1371 11.2165C26.4498 11.5292 26.9569 11.5292 27.2697 11.2165L35.7522 2.73411V5.44155C35.7522 5.88382 36.1107 6.24233 36.553 6.24233C36.9953 6.24233 37.3538 5.88382 37.3538 5.44155V0.880859C37.3538 0.867807 37.3524 0.855074 37.3518 0.842102Z" fill="white"/>
<path d="M6.05713 25.0894C6.49939 25.0894 6.85791 24.7308 6.85791 24.2886C6.85791 23.8463 6.49939 23.4878 6.05713 23.4878C5.61487 23.4878 5.25635 23.8463 5.25635 24.2886C5.25635 24.7308 5.61487 25.0894 6.05713 25.0894Z" fill="white"/>
</svg>
