<svg width="620" height="229" viewBox="0 0 620 229" fill="none" xmlns="http://www.w3.org/2000/svg">
<path d="M95.37 77.79C103.303 77.79 109.707 80.3967 114.58 85.61C119.567 90.8233 122.06 98.19 122.06 107.71V165H103.7V108.73C103.7 103.97 102.51 100.513 100.13 98.36C97.75 96.0933 94.6333 94.96 90.78 94.96C86.7 94.96 83.13 96.3767 80.07 99.21C77.01 101.93 75.48 106.463 75.48 112.81V165H57.12V108.73C57.12 103.97 55.93 100.513 53.55 98.36C51.17 96.0933 48.11 94.96 44.37 94.96C40.29 94.96 36.72 96.3767 33.66 99.21C30.6 101.93 29.07 106.463 29.07 112.81V165H10.71V80H29.07V88.84C33.83 81.4733 40.8567 77.79 50.15 77.79C59.7833 77.79 66.8667 81.87 71.4 90.03C77.2933 81.87 85.2833 77.79 95.37 77.79ZM194.068 167.21C181.602 167.21 171.005 162.903 162.278 154.29C153.552 145.677 149.188 135.08 149.188 122.5C149.188 109.92 153.552 99.3233 162.278 90.71C171.005 82.0967 181.602 77.79 194.068 77.79C206.648 77.79 217.245 82.0967 225.858 90.71C234.585 99.3233 238.948 109.92 238.948 122.5C238.948 135.08 234.585 145.677 225.858 154.29C217.245 162.903 206.648 167.21 194.068 167.21ZM175.198 141.71C180.298 146.81 186.588 149.36 194.068 149.36C201.548 149.36 207.838 146.81 212.938 141.71C218.038 136.61 220.588 130.207 220.588 122.5C220.588 114.793 218.038 108.39 212.938 103.29C207.838 98.19 201.548 95.64 194.068 95.64C186.588 95.64 180.298 98.19 175.198 103.29C170.098 108.39 167.548 114.793 167.548 122.5C167.548 130.207 170.098 136.61 175.198 141.71ZM286.66 92.75C291.307 83.23 299.467 78.47 311.14 78.47V98.36C304.34 97.9067 298.56 99.55 293.8 103.29C289.04 106.917 286.66 112.923 286.66 121.31V165H268.3V80H286.66V92.75ZM380.813 80V97.68H365.173V165H346.813V97.68H331.173V80H346.813V52.8H365.173V80H380.813ZM419.144 130.32C420.504 137.12 423.508 142.333 428.154 145.96C432.914 149.587 438.638 151.4 445.324 151.4C449.858 151.4 453.938 150.437 457.564 148.51C461.191 146.583 463.798 144.09 465.384 141.03L484.084 140.86C481.478 149.02 476.661 155.48 469.634 160.24C462.721 164.887 454.504 167.21 444.984 167.21C431.611 167.21 420.788 163.017 412.514 154.63C404.241 146.13 400.104 135.42 400.104 122.5C400.104 109.693 404.241 99.04 412.514 90.54C420.788 82.04 431.498 77.79 444.644 77.79C457.111 77.79 467.254 82.1533 475.074 90.88C482.894 99.4933 486.804 110.09 486.804 122.67C486.804 124.597 486.578 127.147 486.124 130.32H419.144ZM418.974 115.19H468.274C467.141 108.39 464.364 103.233 459.944 99.72C455.638 96.2067 450.538 94.45 444.644 94.45C437.844 94.45 432.178 96.32 427.644 100.06C423.111 103.8 420.221 108.843 418.974 115.19ZM529.511 130.32C530.871 137.12 533.875 142.333 538.521 145.96C543.281 149.587 549.005 151.4 555.691 151.4C560.225 151.4 564.305 150.437 567.931 148.51C571.558 146.583 574.165 144.09 575.751 141.03L594.451 140.86C591.845 149.02 587.028 155.48 580.001 160.24C573.088 164.887 564.871 167.21 555.351 167.21C541.978 167.21 531.155 163.017 522.881 154.63C514.608 146.13 510.471 135.42 510.471 122.5C510.471 109.693 514.608 99.04 522.881 90.54C531.155 82.04 541.865 77.79 555.011 77.79C567.478 77.79 577.621 82.1533 585.441 90.88C593.261 99.4933 597.171 110.09 597.171 122.67C597.171 124.597 596.945 127.147 596.491 130.32H529.511ZM529.341 115.19H578.641C577.508 108.39 574.731 103.233 570.311 99.72C566.005 96.2067 560.905 94.45 555.011 94.45C548.211 94.45 542.545 96.32 538.011 100.06C533.478 103.8 530.588 108.843 529.341 115.19Z" fill="url(#paint0_linear)"/>
<line x1="571" y1="213" x2="488" y2="213" stroke="url(#paint1_linear)" stroke-width="4" stroke-linecap="round"/>
<line x1="48" y1="212" x2="141" y2="212" stroke="url(#paint2_linear)" stroke-width="4" stroke-linecap="round"/>
<path d="M206.15 206V209.06H201.86V221H198.62V209.06H194.3V206H201.86H206.15ZM221.361 212.06C223.081 212.86 223.941 214.23 223.941 216.17C223.941 217.57 223.471 218.73 222.531 219.65C221.611 220.55 220.281 221 218.541 221H210.591V214.04V206H213.681H217.191C218.631 206 219.791 206.39 220.671 207.17C221.551 207.95 221.991 208.92 221.991 210.08C221.991 210.76 221.781 211.42 221.361 212.06ZM213.681 208.7V211.49H218.541H218.601C218.801 211.15 218.901 210.82 218.901 210.5C218.901 209.92 218.701 209.47 218.301 209.15C217.921 208.83 217.421 208.68 216.801 208.7H213.681ZM218.301 218.24C219.081 218.24 219.681 218.05 220.101 217.67C220.541 217.29 220.761 216.77 220.761 216.11C220.761 215.45 220.551 214.94 220.131 214.58C219.711 214.22 219.101 214.04 218.301 214.04H213.681V218.24H218.301ZM235.683 221.39C233.483 221.39 231.613 220.63 230.073 219.11C228.533 217.59 227.763 215.72 227.763 213.5C227.763 211.28 228.533 209.41 230.073 207.89C231.613 206.37 233.483 205.61 235.683 205.61C237.903 205.61 239.773 206.37 241.293 207.89C242.833 209.41 243.603 211.28 243.603 213.5C243.603 215.72 242.833 217.59 241.293 219.11C239.773 220.63 237.903 221.39 235.683 221.39ZM232.353 216.89C233.253 217.79 234.363 218.24 235.683 218.24C237.003 218.24 238.113 217.79 239.013 216.89C239.913 215.99 240.363 214.86 240.363 213.5C240.363 212.14 239.913 211.01 239.013 210.11C238.113 209.21 237.003 208.76 235.683 208.76C234.363 208.76 233.253 209.21 232.353 210.11C231.453 211.01 231.003 212.14 231.003 213.5C231.003 214.86 231.453 215.99 232.353 216.89ZM250.793 203.9V201.08H259.193V203.9H250.793ZM258.743 206H261.233V221H258.053V211.4L251.273 221H248.783V206H251.963V215.6L258.743 206ZM277.194 200H280.644V221H277.194V200ZM299.54 200V203.3H294.23V221H290.78V203.3H285.44V200H294.23H299.54ZM314.09 213.44V210.32H325.19V213.44H314.09ZM351.943 212.06C353.663 212.86 354.523 214.23 354.523 216.17C354.523 217.57 354.053 218.73 353.113 219.65C352.193 220.55 350.863 221 349.123 221H341.173V214.04V206H344.263H347.773C349.213 206 350.373 206.39 351.253 207.17C352.133 207.95 352.573 208.92 352.573 210.08C352.573 210.76 352.363 211.42 351.943 212.06ZM344.263 208.7V211.49H349.123H349.183C349.383 211.15 349.483 210.82 349.483 210.5C349.483 209.92 349.283 209.47 348.883 209.15C348.503 208.83 348.003 208.68 347.383 208.7H344.263ZM348.883 218.24C349.663 218.24 350.263 218.05 350.683 217.67C351.123 217.29 351.343 216.77 351.343 216.11C351.343 215.45 351.133 214.94 350.713 214.58C350.293 214.22 349.683 214.04 348.883 214.04H344.263V218.24H348.883ZM365.725 211.1C367.325 211.1 368.635 211.56 369.655 212.48C370.675 213.38 371.185 214.57 371.185 216.05C371.185 217.51 370.675 218.7 369.655 219.62C368.635 220.54 367.325 221 365.725 221H360.145H359.185V206H362.425V211.1H365.725ZM372.985 206H376.225V221H372.985V206ZM365.755 218.09C366.395 218.09 366.925 217.9 367.345 217.52C367.785 217.14 368.005 216.65 368.005 216.05C368.005 215.43 367.785 214.94 367.345 214.58C366.925 214.2 366.395 214.01 365.755 214.01H362.425V218.09H365.755ZM389.106 221.39C386.866 221.39 385.016 220.67 383.556 219.23C382.116 217.79 381.396 215.94 381.396 213.68C381.396 212.3 381.636 211.03 382.116 209.87C382.616 208.71 383.226 207.77 383.946 207.05C384.666 206.31 385.456 205.61 386.316 204.95C387.176 204.27 387.966 203.7 388.686 203.24C389.406 202.78 390.006 202.27 390.486 201.71C390.986 201.15 391.236 200.58 391.236 200H394.656C394.656 200.98 394.416 201.84 393.936 202.58C393.476 203.32 392.876 203.94 392.136 204.44C391.396 204.94 390.626 205.4 389.826 205.82C389.046 206.24 388.256 206.75 387.456 207.35C386.676 207.93 386.086 208.56 385.686 209.24C386.806 208.14 388.206 207.59 389.886 207.59C391.666 207.59 393.226 208.23 394.566 209.51C395.926 210.79 396.606 212.41 396.606 214.37C396.606 216.41 395.896 218.09 394.476 219.41C393.076 220.73 391.286 221.39 389.106 221.39ZM385.956 217.22C386.816 217.98 387.866 218.36 389.106 218.36C390.346 218.36 391.366 217.99 392.166 217.25C392.966 216.49 393.366 215.53 393.366 214.37C393.366 213.21 392.946 212.25 392.106 211.49C391.286 210.71 390.246 210.32 388.986 210.32C387.846 210.32 386.846 210.67 385.986 211.37C385.126 212.07 384.696 213.02 384.696 214.22C384.696 215.44 385.116 216.44 385.956 217.22ZM408.529 221.39C406.329 221.39 404.459 220.63 402.919 219.11C401.379 217.59 400.609 215.72 400.609 213.5C400.609 211.28 401.379 209.41 402.919 207.89C404.459 206.37 406.329 205.61 408.529 205.61C410.749 205.61 412.619 206.37 414.139 207.89C415.679 209.41 416.449 211.28 416.449 213.5C416.449 215.72 415.679 217.59 414.139 219.11C412.619 220.63 410.749 221.39 408.529 221.39ZM405.199 216.89C406.099 217.79 407.209 218.24 408.529 218.24C409.849 218.24 410.959 217.79 411.859 216.89C412.759 215.99 413.209 214.86 413.209 213.5C413.209 212.14 412.759 211.01 411.859 210.11C410.959 209.21 409.849 208.76 408.529 208.76C407.209 208.76 406.099 209.21 405.199 210.11C404.299 211.01 403.849 212.14 403.849 213.5C403.849 214.86 404.299 215.99 405.199 216.89ZM430.118 205.61C432.178 205.61 433.938 206.37 435.398 207.89C436.858 209.41 437.588 211.28 437.588 213.5C437.588 215.7 436.858 217.57 435.398 219.11C433.938 220.63 432.178 221.39 430.118 221.39C427.838 221.39 426.088 220.54 424.868 218.84V227H421.628V206H424.868V208.13C426.088 206.45 427.838 205.61 430.118 205.61ZM429.608 218.3C430.968 218.3 432.098 217.85 432.998 216.95C433.898 216.03 434.348 214.88 434.348 213.5C434.348 212.12 433.898 210.98 432.998 210.08C432.098 209.16 430.968 208.7 429.608 208.7C428.308 208.7 427.208 209.12 426.308 209.96C425.428 210.78 424.948 211.83 424.868 213.11V213.89C424.948 215.17 425.428 216.23 426.308 217.07C427.208 217.89 428.308 218.3 429.608 218.3Z" fill="url(#paint3_radial)"/>
<defs>
<linearGradient id="paint0_linear" x1="13.0986" y1="121.224" x2="619.999" y2="123.583" gradientUnits="userSpaceOnUse">
<stop stop-color="#17FFF7"/>
<stop offset="1" stop-color="#9F16F8"/>
</linearGradient>
<linearGradient id="paint1_linear" x1="573" y1="212.5" x2="486" y2="212.5" gradientUnits="userSpaceOnUse">
<stop stop-color="#9F16F8"/>
<stop offset="1" stop-color="#84FFFB"/>
</linearGradient>
<linearGradient id="paint2_linear" x1="46" y1="212.5" x2="143" y2="212.5" gradientUnits="userSpaceOnUse">
<stop stop-color="#84FFFB"/>
<stop offset="1" stop-color="#9F16F8"/>
</linearGradient>
<radialGradient id="paint3_radial" cx="0" cy="0" r="1" gradientUnits="userSpaceOnUse" gradientTransform="translate(198.261 213.765) scale(240.739 1663.72)">
<stop stop-color="#9F16F8"/>
<stop offset="1" stop-color="#84FFFB"/>
</radialGradient>
</defs>
</svg>
