<svg width="275" height="243" viewBox="0 0 275 243" fill="none" xmlns="http://www.w3.org/2000/svg">
<path d="M229.684 64.0555C229.684 64.0555 207.077 53.5069 176.692 52.4591C176.692 52.4591 169.073 53.1517 168.274 60.2019C167.475 67.2521 173.548 70.8393 178.325 70.5552C183.085 70.2711 204.164 73.1657 219.614 78.6532C219.597 78.6709 228.387 69.8271 229.684 64.0555Z" fill="url(#paint0_linear)"/>
<path d="M233.394 37.7372C233.394 37.7372 218.122 25.8566 194.112 23.3704C194.112 23.3704 179.763 23.619 180.083 36.423C180.385 48.4812 189.388 53.2582 195.355 54.3415C201.322 55.4248 216.009 58.0708 229.683 64.0555C229.683 64.0555 237.248 52.9386 233.394 37.7372Z" fill="url(#paint1_linear)"/>
<path d="M95.1619 83.8564C78.1136 90.3916 58.0107 100.496 41.6195 115.662C41.6195 115.662 30.2894 110.796 27.3237 105.362C27.3237 105.362 49.2912 80.9617 91.3793 65.4051C91.3793 65.4051 100.117 62.6703 102.532 70.2888C105.764 80.4467 95.1619 83.8564 95.1619 83.8564Z" fill="url(#paint2_linear)"/>
<path d="M27.323 105.38C27.323 105.38 55.0621 76.4332 97.8605 63.2208C97.8605 63.2208 112.316 57.7866 108.835 42.7095C105.355 27.6324 91.7692 31.6281 91.7692 31.6281C91.7692 31.6281 38.9549 45.7818 13.7554 82.8086C13.7909 82.7909 13.9507 98.2764 27.323 105.38Z" fill="url(#paint3_linear)"/>
<path d="M97.47 29.8168C35.137 48.4634 13.7733 82.7731 13.7733 82.7731C9.47572 71.2655 19.4739 57.4848 19.4739 57.4848C38.5289 30.4916 69.8552 16.4445 91.6984 9.5541C91.6984 9.5541 101.697 6.57065 104.787 16.0538C107.877 25.5369 97.47 29.8168 97.47 29.8168Z" fill="url(#paint4_linear)"/>
<path d="M162.129 20.7243C197.629 20.7776 245.329 29.2485 261.915 72.4553C261.915 72.4553 252.592 38.7316 212.937 13.8695C212.937 13.8695 194.273 1.77581 160.549 0.0176974C157.672 -0.124372 154.759 0.585979 152.415 2.25529C150.302 3.74702 148.42 6.07341 148.544 9.67842C148.775 17.6521 155.967 20.7776 162.129 20.7243Z" fill="url(#paint5_linear)"/>
<path d="M152.025 117.385C152.025 117.385 206.277 102.787 227.197 68.5129C248.117 34.2387 217.377 15.3612 212.937 13.8517C212.937 13.8517 241.173 26.5669 259.731 65.1743C278.307 103.782 232.152 150.221 167.315 170.359C167.315 170.359 132.987 182.879 126.701 152.103C120.556 122.002 152.025 117.385 152.025 117.385Z" fill="url(#paint6_linear)"/>
<path d="M39.3103 114.117C39.3103 114.117 55.9502 123.014 52.9135 145.248C49.859 167.482 34.8884 165.014 28.8505 162.456C22.8125 159.899 -0.309284 142.904 0.365546 114.153C0.365546 114.153 1.9816 88.3138 19.4739 57.5025C19.4739 57.5025 -3.50584 88.3848 39.3103 114.117Z" fill="url(#paint7_linear)"/>
<path d="M0.454222 118.486C0.454222 118.486 -3.34612 146.616 11.0384 181.6C11.0384 181.6 23.8424 208.132 66.9427 219.32C70.4412 220.225 74.0817 220.669 77.6867 220.385C84.3995 219.87 93.1545 217.011 92.0713 205.379C90.5263 188.739 81.0431 180.055 67.3157 177.001C53.606 173.946 3.41992 162.243 0.454222 118.486Z" fill="url(#paint8_linear)"/>
<path d="M190.792 161.622C190.792 161.622 165.753 171.052 172.27 194.528C178.787 218.005 203.845 205.663 203.845 205.663C203.845 205.663 271.754 176.184 274.862 124.24C274.862 124.24 275.59 100.745 261.223 68.1577C261.223 68.1577 282.676 119.587 190.792 161.622Z" fill="url(#paint9_linear)"/>
<path d="M11.0391 181.6C11.0391 181.6 29.6146 221.93 105.941 225.429C105.941 225.429 114.412 225.304 117.058 232.585C119.687 239.866 113.08 242.353 107.948 242.033C107.948 242.033 58.5258 242.264 26.1339 208.416C26.1339 208.416 14.946 192.238 11.0391 181.6Z" fill="url(#paint10_linear)"/>
<path d="M241.813 181.44C241.813 181.44 236.343 185.933 237.799 192.184C239.256 198.435 243.198 198.329 247.052 195.292C250.923 192.255 268.025 173.449 272.358 154.358C272.358 154.358 275.714 137.701 274.862 123.742C274.862 123.76 276.797 153.524 241.813 181.44Z" fill="url(#paint11_linear)"/>
<defs>
<linearGradient id="paint0_linear" x1="114.528" y1="48.3245" x2="216.62" y2="68.3702" gradientUnits="userSpaceOnUse">
<stop stop-color="#8C15E8"/>
<stop offset="0.9588" stop-color="#241645"/>
</linearGradient>
<linearGradient id="paint1_linear" x1="78.3032" y1="13.674" x2="248.347" y2="51.5116" gradientUnits="userSpaceOnUse">
<stop offset="0.2081" stop-color="#1E82EA"/>
<stop offset="0.2898" stop-color="#1E7DE2"/>
<stop offset="0.417" stop-color="#1C6ECC"/>
<stop offset="0.574" stop-color="#1B57A8"/>
<stop offset="0.7545" stop-color="#183776"/>
<stop offset="0.9525" stop-color="#150E36"/>
<stop offset="1" stop-color="#140326"/>
</linearGradient>
<linearGradient id="paint2_linear" x1="54.3856" y1="97.231" x2="154.28" y2="32.5422" gradientUnits="userSpaceOnUse">
<stop offset="0.0412" stop-color="#241645"/>
<stop offset="1" stop-color="#8C15E8"/>
</linearGradient>
<linearGradient id="paint3_linear" x1="-0.228696" y1="104.802" x2="183.062" y2="-13.8925" gradientUnits="userSpaceOnUse">
<stop stop-color="#140326"/>
<stop offset="0.2653" stop-color="#18306C"/>
<stop offset="0.6277" stop-color="#1C6BC6"/>
<stop offset="0.7919" stop-color="#1E82EA"/>
</linearGradient>
<linearGradient id="paint4_linear" x1="7.98643" y1="55.3013" x2="108.704" y2="34.7322" gradientUnits="userSpaceOnUse">
<stop offset="0.2056" stop-color="#241645"/>
<stop offset="0.3004" stop-color="#2A164F"/>
<stop offset="0.4605" stop-color="#3B1669"/>
<stop offset="0.6665" stop-color="#571694"/>
<stop offset="0.9077" stop-color="#7C15CF"/>
<stop offset="1" stop-color="#8C15E8"/>
</linearGradient>
<linearGradient id="paint5_linear" x1="156.042" y1="47.2603" x2="252.757" y2="27.5088" gradientUnits="userSpaceOnUse">
<stop stop-color="#8C15E8"/>
<stop offset="0.0923" stop-color="#7C15CF"/>
<stop offset="0.3335" stop-color="#571694"/>
<stop offset="0.5395" stop-color="#3B1669"/>
<stop offset="0.6996" stop-color="#2A164F"/>
<stop offset="0.7944" stop-color="#241645"/>
</linearGradient>
<linearGradient id="paint6_linear" x1="137.498" y1="134.179" x2="260.359" y2="49.5334" gradientUnits="userSpaceOnUse">
<stop stop-color="#19EDD0"/>
<stop offset="0.126" stop-color="#24D9D2"/>
<stop offset="0.3846" stop-color="#3FA5D8"/>
<stop offset="0.7496" stop-color="#6C52E1"/>
<stop offset="1" stop-color="#8C15E8"/>
</linearGradient>
<linearGradient id="paint7_linear" x1="58.6125" y1="121.404" x2="-8.41099" y2="99.2107" gradientUnits="userSpaceOnUse">
<stop stop-color="#19EDD0"/>
<stop offset="1" stop-color="#8C15E8"/>
</linearGradient>
<linearGradient id="paint8_linear" x1="7.21741" y1="176.062" x2="83.2194" y2="160.541" gradientUnits="userSpaceOnUse">
<stop stop-color="#8C15E8"/>
<stop offset="1" stop-color="#1E82EA"/>
</linearGradient>
<linearGradient id="paint9_linear" x1="168.596" y1="179.296" x2="289.956" y2="100.707" gradientUnits="userSpaceOnUse">
<stop offset="0.0412" stop-color="#1E82EA"/>
<stop offset="0.8496" stop-color="#8C15E8"/>
</linearGradient>
<linearGradient id="paint10_linear" x1="27.4479" y1="226.079" x2="85.9848" y2="201.431" gradientUnits="userSpaceOnUse">
<stop offset="0.0412" stop-color="#241645"/>
<stop offset="1" stop-color="#8C15E8"/>
</linearGradient>
<linearGradient id="paint11_linear" x1="241.994" y1="169.011" x2="286.862" y2="146.93" gradientUnits="userSpaceOnUse">
<stop stop-color="#8C15E8"/>
<stop offset="0.9588" stop-color="#241645"/>
</linearGradient>
</defs>
</svg>
