<svg width="1015" height="278" viewBox="0 0 1015 278" fill="none" xmlns="http://www.w3.org/2000/svg">
<path d="M490.37 77.79C498.303 77.79 504.707 80.3967 509.58 85.61C514.567 90.8233 517.06 98.19 517.06 107.71V165H498.7V108.73C498.7 103.97 497.51 100.513 495.13 98.36C492.75 96.0933 489.633 94.96 485.78 94.96C481.7 94.96 478.13 96.3767 475.07 99.21C472.01 101.93 470.48 106.463 470.48 112.81V165H452.12V108.73C452.12 103.97 450.93 100.513 448.55 98.36C446.17 96.0933 443.11 94.96 439.37 94.96C435.29 94.96 431.72 96.3767 428.66 99.21C425.6 101.93 424.07 106.463 424.07 112.81V165H405.71V80H424.07V88.84C428.83 81.4733 435.857 77.79 445.15 77.79C454.783 77.79 461.867 81.87 466.4 90.03C472.293 81.87 480.283 77.79 490.37 77.79ZM589.068 167.21C576.602 167.21 566.005 162.903 557.278 154.29C548.552 145.677 544.188 135.08 544.188 122.5C544.188 109.92 548.552 99.3233 557.278 90.71C566.005 82.0967 576.602 77.79 589.068 77.79C601.648 77.79 612.245 82.0967 620.858 90.71C629.585 99.3233 633.948 109.92 633.948 122.5C633.948 135.08 629.585 145.677 620.858 154.29C612.245 162.903 601.648 167.21 589.068 167.21ZM570.198 141.71C575.298 146.81 581.588 149.36 589.068 149.36C596.548 149.36 602.838 146.81 607.938 141.71C613.038 136.61 615.588 130.207 615.588 122.5C615.588 114.793 613.038 108.39 607.938 103.29C602.838 98.19 596.548 95.64 589.068 95.64C581.588 95.64 575.298 98.19 570.198 103.29C565.098 108.39 562.548 114.793 562.548 122.5C562.548 130.207 565.098 136.61 570.198 141.71ZM681.66 92.75C686.307 83.23 694.467 78.47 706.14 78.47V98.36C699.34 97.9067 693.56 99.55 688.8 103.29C684.04 106.917 681.66 112.923 681.66 121.31V165H663.3V80H681.66V92.75ZM775.813 80V97.68H760.173V165H741.813V97.68H726.173V80H741.813V52.8H760.173V80H775.813ZM814.144 130.32C815.504 137.12 818.508 142.333 823.154 145.96C827.914 149.587 833.638 151.4 840.324 151.4C844.858 151.4 848.938 150.437 852.564 148.51C856.191 146.583 858.798 144.09 860.384 141.03L879.084 140.86C876.478 149.02 871.661 155.48 864.634 160.24C857.721 164.887 849.504 167.21 839.984 167.21C826.611 167.21 815.788 163.017 807.514 154.63C799.241 146.13 795.104 135.42 795.104 122.5C795.104 109.693 799.241 99.04 807.514 90.54C815.788 82.04 826.498 77.79 839.644 77.79C852.111 77.79 862.254 82.1533 870.074 90.88C877.894 99.4933 881.804 110.09 881.804 122.67C881.804 124.597 881.578 127.147 881.124 130.32H814.144ZM813.974 115.19H863.274C862.141 108.39 859.364 103.233 854.944 99.72C850.638 96.2067 845.538 94.45 839.644 94.45C832.844 94.45 827.178 96.32 822.644 100.06C818.111 103.8 815.221 108.843 813.974 115.19ZM924.511 130.32C925.871 137.12 928.875 142.333 933.521 145.96C938.281 149.587 944.005 151.4 950.691 151.4C955.225 151.4 959.305 150.437 962.931 148.51C966.558 146.583 969.165 144.09 970.751 141.03L989.451 140.86C986.845 149.02 982.028 155.48 975.001 160.24C968.088 164.887 959.871 167.21 950.351 167.21C936.978 167.21 926.155 163.017 917.881 154.63C909.608 146.13 905.471 135.42 905.471 122.5C905.471 109.693 909.608 99.04 917.881 90.54C926.155 82.04 936.865 77.79 950.011 77.79C962.478 77.79 972.621 82.1533 980.441 90.88C988.261 99.4933 992.171 110.09 992.171 122.67C992.171 124.597 991.945 127.147 991.491 130.32H924.511ZM924.341 115.19H973.641C972.508 108.39 969.731 103.233 965.311 99.72C961.005 96.2067 955.905 94.45 950.011 94.45C943.211 94.45 937.545 96.32 933.011 100.06C928.478 103.8 925.588 108.843 924.341 115.19Z" fill="url(#paint0_linear)"/>
<line x1="966" y1="213" x2="883" y2="213" stroke="url(#paint1_linear)" stroke-width="4" stroke-linecap="round"/>
<line x1="443" y1="212" x2="536" y2="212" stroke="url(#paint2_linear)" stroke-width="4" stroke-linecap="round"/>
<path d="M601.15 206V209.06H596.86V221H593.62V209.06H589.3V206H596.86H601.15ZM616.361 212.06C618.081 212.86 618.941 214.23 618.941 216.17C618.941 217.57 618.471 218.73 617.531 219.65C616.611 220.55 615.281 221 613.541 221H605.591V214.04V206H608.681H612.191C613.631 206 614.791 206.39 615.671 207.17C616.551 207.95 616.991 208.92 616.991 210.08C616.991 210.76 616.781 211.42 616.361 212.06ZM608.681 208.7V211.49H613.541H613.601C613.801 211.15 613.901 210.82 613.901 210.5C613.901 209.92 613.701 209.47 613.301 209.15C612.921 208.83 612.421 208.68 611.801 208.7H608.681ZM613.301 218.24C614.081 218.24 614.681 218.05 615.101 217.67C615.541 217.29 615.761 216.77 615.761 216.11C615.761 215.45 615.551 214.94 615.131 214.58C614.711 214.22 614.101 214.04 613.301 214.04H608.681V218.24H613.301ZM630.683 221.39C628.483 221.39 626.613 220.63 625.073 219.11C623.533 217.59 622.763 215.72 622.763 213.5C622.763 211.28 623.533 209.41 625.073 207.89C626.613 206.37 628.483 205.61 630.683 205.61C632.903 205.61 634.773 206.37 636.293 207.89C637.833 209.41 638.603 211.28 638.603 213.5C638.603 215.72 637.833 217.59 636.293 219.11C634.773 220.63 632.903 221.39 630.683 221.39ZM627.353 216.89C628.253 217.79 629.363 218.24 630.683 218.24C632.003 218.24 633.113 217.79 634.013 216.89C634.913 215.99 635.363 214.86 635.363 213.5C635.363 212.14 634.913 211.01 634.013 210.11C633.113 209.21 632.003 208.76 630.683 208.76C629.363 208.76 628.253 209.21 627.353 210.11C626.453 211.01 626.003 212.14 626.003 213.5C626.003 214.86 626.453 215.99 627.353 216.89ZM645.793 203.9V201.08H654.193V203.9H645.793ZM653.743 206H656.233V221H653.053V211.4L646.273 221H643.783V206H646.963V215.6L653.743 206ZM672.194 200H675.644V221H672.194V200ZM694.54 200V203.3H689.23V221H685.78V203.3H680.44V200H689.23H694.54ZM709.09 213.44V210.32H720.19V213.44H709.09ZM746.943 212.06C748.663 212.86 749.523 214.23 749.523 216.17C749.523 217.57 749.053 218.73 748.113 219.65C747.193 220.55 745.863 221 744.123 221H736.173V214.04V206H739.263H742.773C744.213 206 745.373 206.39 746.253 207.17C747.133 207.95 747.573 208.92 747.573 210.08C747.573 210.76 747.363 211.42 746.943 212.06ZM739.263 208.7V211.49H744.123H744.183C744.383 211.15 744.483 210.82 744.483 210.5C744.483 209.92 744.283 209.47 743.883 209.15C743.503 208.83 743.003 208.68 742.383 208.7H739.263ZM743.883 218.24C744.663 218.24 745.263 218.05 745.683 217.67C746.123 217.29 746.343 216.77 746.343 216.11C746.343 215.45 746.133 214.94 745.713 214.58C745.293 214.22 744.683 214.04 743.883 214.04H739.263V218.24H743.883ZM760.725 211.1C762.325 211.1 763.635 211.56 764.655 212.48C765.675 213.38 766.185 214.57 766.185 216.05C766.185 217.51 765.675 218.7 764.655 219.62C763.635 220.54 762.325 221 760.725 221H755.145H754.185V206H757.425V211.1H760.725ZM767.985 206H771.225V221H767.985V206ZM760.755 218.09C761.395 218.09 761.925 217.9 762.345 217.52C762.785 217.14 763.005 216.65 763.005 216.05C763.005 215.43 762.785 214.94 762.345 214.58C761.925 214.2 761.395 214.01 760.755 214.01H757.425V218.09H760.755ZM784.106 221.39C781.866 221.39 780.016 220.67 778.556 219.23C777.116 217.79 776.396 215.94 776.396 213.68C776.396 212.3 776.636 211.03 777.116 209.87C777.616 208.71 778.226 207.77 778.946 207.05C779.666 206.31 780.456 205.61 781.316 204.95C782.176 204.27 782.966 203.7 783.686 203.24C784.406 202.78 785.006 202.27 785.486 201.71C785.986 201.15 786.236 200.58 786.236 200H789.656C789.656 200.98 789.416 201.84 788.936 202.58C788.476 203.32 787.876 203.94 787.136 204.44C786.396 204.94 785.626 205.4 784.826 205.82C784.046 206.24 783.256 206.75 782.456 207.35C781.676 207.93 781.086 208.56 780.686 209.24C781.806 208.14 783.206 207.59 784.886 207.59C786.666 207.59 788.226 208.23 789.566 209.51C790.926 210.79 791.606 212.41 791.606 214.37C791.606 216.41 790.896 218.09 789.476 219.41C788.076 220.73 786.286 221.39 784.106 221.39ZM780.956 217.22C781.816 217.98 782.866 218.36 784.106 218.36C785.346 218.36 786.366 217.99 787.166 217.25C787.966 216.49 788.366 215.53 788.366 214.37C788.366 213.21 787.946 212.25 787.106 211.49C786.286 210.71 785.246 210.32 783.986 210.32C782.846 210.32 781.846 210.67 780.986 211.37C780.126 212.07 779.696 213.02 779.696 214.22C779.696 215.44 780.116 216.44 780.956 217.22ZM803.529 221.39C801.329 221.39 799.459 220.63 797.919 219.11C796.379 217.59 795.609 215.72 795.609 213.5C795.609 211.28 796.379 209.41 797.919 207.89C799.459 206.37 801.329 205.61 803.529 205.61C805.749 205.61 807.619 206.37 809.139 207.89C810.679 209.41 811.449 211.28 811.449 213.5C811.449 215.72 810.679 217.59 809.139 219.11C807.619 220.63 805.749 221.39 803.529 221.39ZM800.199 216.89C801.099 217.79 802.209 218.24 803.529 218.24C804.849 218.24 805.959 217.79 806.859 216.89C807.759 215.99 808.209 214.86 808.209 213.5C808.209 212.14 807.759 211.01 806.859 210.11C805.959 209.21 804.849 208.76 803.529 208.76C802.209 208.76 801.099 209.21 800.199 210.11C799.299 211.01 798.849 212.14 798.849 213.5C798.849 214.86 799.299 215.99 800.199 216.89ZM825.118 205.61C827.178 205.61 828.938 206.37 830.398 207.89C831.858 209.41 832.588 211.28 832.588 213.5C832.588 215.7 831.858 217.57 830.398 219.11C828.938 220.63 827.178 221.39 825.118 221.39C822.838 221.39 821.088 220.54 819.868 218.84V227H816.628V206H819.868V208.13C821.088 206.45 822.838 205.61 825.118 205.61ZM824.608 218.3C825.968 218.3 827.098 217.85 827.998 216.95C828.898 216.03 829.348 214.88 829.348 213.5C829.348 212.12 828.898 210.98 827.998 210.08C827.098 209.16 825.968 208.7 824.608 208.7C823.308 208.7 822.208 209.12 821.308 209.96C820.428 210.78 819.948 211.83 819.868 213.11V213.89C819.948 215.17 820.428 216.23 821.308 217.07C822.208 217.89 823.308 218.3 824.608 218.3Z" fill="url(#paint3_radial)"/>
<path d="M229.684 99.0555C229.684 99.0555 207.077 88.5069 176.692 87.4591C176.692 87.4591 169.073 88.1517 168.274 95.2019C167.475 102.252 173.548 105.839 178.325 105.555C183.085 105.271 204.164 108.166 219.614 113.653C219.597 113.671 228.387 104.827 229.684 99.0555Z" fill="url(#paint4_linear)"/>
<path d="M233.394 72.7372C233.394 72.7372 218.122 60.8566 194.112 58.3704C194.112 58.3704 179.763 58.619 180.083 71.423C180.385 83.4812 189.388 88.2582 195.355 89.3415C201.322 90.4248 216.009 93.0708 229.683 99.0555C229.683 99.0555 237.248 87.9386 233.394 72.7372Z" fill="url(#paint5_linear)"/>
<path d="M95.1619 118.856C78.1136 125.392 58.0107 135.496 41.6195 150.662C41.6195 150.662 30.2894 145.796 27.3237 140.362C27.3237 140.362 49.2912 115.962 91.3793 100.405C91.3793 100.405 100.117 97.6703 102.532 105.289C105.764 115.447 95.1619 118.856 95.1619 118.856Z" fill="url(#paint6_linear)"/>
<path d="M27.323 140.38C27.323 140.38 55.0621 111.433 97.8605 98.2208C97.8605 98.2208 112.316 92.7866 108.835 77.7095C105.355 62.6324 91.7692 66.6281 91.7692 66.6281C91.7692 66.6281 38.9549 80.7818 13.7554 117.809C13.7909 117.791 13.9507 133.276 27.323 140.38Z" fill="url(#paint7_linear)"/>
<path d="M97.47 64.8168C35.137 83.4634 13.7733 117.773 13.7733 117.773C9.47572 106.266 19.4739 92.4848 19.4739 92.4848C38.5289 65.4916 69.8552 51.4445 91.6984 44.5541C91.6984 44.5541 101.697 41.5706 104.787 51.0538C107.877 60.5369 97.47 64.8168 97.47 64.8168Z" fill="url(#paint8_linear)"/>
<path d="M162.129 55.7243C197.629 55.7776 245.329 64.2485 261.915 107.455C261.915 107.455 252.592 73.7316 212.937 48.8695C212.937 48.8695 194.273 36.7758 160.549 35.0177C157.672 34.8756 154.759 35.586 152.415 37.2553C150.302 38.747 148.42 41.0734 148.544 44.6784C148.775 52.6521 155.967 55.7776 162.129 55.7243Z" fill="url(#paint9_linear)"/>
<path d="M152.025 152.385C152.025 152.385 206.277 137.787 227.197 103.513C248.117 69.2387 217.377 50.3612 212.937 48.8517C212.937 48.8517 241.173 61.5669 259.731 100.174C278.307 138.782 232.152 185.221 167.315 205.359C167.315 205.359 132.987 217.879 126.701 187.103C120.556 157.002 152.025 152.385 152.025 152.385Z" fill="url(#paint10_linear)"/>
<path d="M39.3103 149.117C39.3103 149.117 55.9502 158.014 52.9135 180.248C49.859 202.482 34.8884 200.014 28.8505 197.456C22.8125 194.899 -0.309284 177.904 0.365546 149.153C0.365546 149.153 1.9816 123.314 19.4739 92.5025C19.4739 92.5025 -3.50584 123.385 39.3103 149.117Z" fill="url(#paint11_linear)"/>
<path d="M0.454222 153.486C0.454222 153.486 -3.34612 181.616 11.0384 216.6C11.0384 216.6 23.8424 243.132 66.9427 254.32C70.4412 255.225 74.0817 255.669 77.6867 255.385C84.3995 254.87 93.1545 252.011 92.0713 240.379C90.5263 223.739 81.0431 215.055 67.3157 212.001C53.606 208.946 3.41992 197.243 0.454222 153.486Z" fill="url(#paint12_linear)"/>
<path d="M190.792 196.622C190.792 196.622 165.753 206.052 172.27 229.528C178.787 253.005 203.845 240.663 203.845 240.663C203.845 240.663 271.754 211.184 274.862 159.24C274.862 159.24 275.59 135.745 261.223 103.158C261.223 103.158 282.676 154.587 190.792 196.622Z" fill="url(#paint13_linear)"/>
<path d="M11.0391 216.6C11.0391 216.6 29.6146 256.93 105.941 260.429C105.941 260.429 114.412 260.304 117.058 267.585C119.687 274.866 113.08 277.353 107.948 277.033C107.948 277.033 58.5258 277.264 26.1339 243.416C26.1339 243.416 14.946 227.238 11.0391 216.6Z" fill="url(#paint14_linear)"/>
<path d="M241.813 216.44C241.813 216.44 236.343 220.933 237.799 227.184C239.256 233.435 243.198 233.329 247.052 230.292C250.923 227.255 268.025 208.449 272.358 189.358C272.358 189.358 275.714 172.701 274.862 158.742C274.862 158.76 276.797 188.524 241.813 216.44Z" fill="url(#paint15_linear)"/>
<defs>
<linearGradient id="paint0_linear" x1="408.099" y1="121.224" x2="1015" y2="123.583" gradientUnits="userSpaceOnUse">
<stop stop-color="#17FFF7"/>
<stop offset="1" stop-color="#9F16F8"/>
</linearGradient>
<linearGradient id="paint1_linear" x1="968" y1="212.5" x2="881" y2="212.5" gradientUnits="userSpaceOnUse">
<stop stop-color="#9F16F8"/>
<stop offset="1" stop-color="#84FFFB"/>
</linearGradient>
<linearGradient id="paint2_linear" x1="441" y1="212.5" x2="538" y2="212.5" gradientUnits="userSpaceOnUse">
<stop stop-color="#84FFFB"/>
<stop offset="1" stop-color="#9F16F8"/>
</linearGradient>
<radialGradient id="paint3_radial" cx="0" cy="0" r="1" gradientUnits="userSpaceOnUse" gradientTransform="translate(593.261 213.765) scale(240.739 1663.72)">
<stop stop-color="#9F16F8"/>
<stop offset="1" stop-color="#84FFFB"/>
</radialGradient>
<linearGradient id="paint4_linear" x1="114.528" y1="83.3245" x2="216.62" y2="103.37" gradientUnits="userSpaceOnUse">
<stop stop-color="#8C15E8"/>
<stop offset="0.9588" stop-color="#241645"/>
</linearGradient>
<linearGradient id="paint5_linear" x1="78.3032" y1="48.674" x2="248.347" y2="86.5116" gradientUnits="userSpaceOnUse">
<stop offset="0.2081" stop-color="#1E82EA"/>
<stop offset="0.2898" stop-color="#1E7DE2"/>
<stop offset="0.417" stop-color="#1C6ECC"/>
<stop offset="0.574" stop-color="#1B57A8"/>
<stop offset="0.7545" stop-color="#183776"/>
<stop offset="0.9525" stop-color="#150E36"/>
<stop offset="1" stop-color="#140326"/>
</linearGradient>
<linearGradient id="paint6_linear" x1="54.3856" y1="132.231" x2="154.28" y2="67.5422" gradientUnits="userSpaceOnUse">
<stop offset="0.0412" stop-color="#241645"/>
<stop offset="1" stop-color="#8C15E8"/>
</linearGradient>
<linearGradient id="paint7_linear" x1="-0.228696" y1="139.802" x2="183.062" y2="21.1075" gradientUnits="userSpaceOnUse">
<stop stop-color="#140326"/>
<stop offset="0.2653" stop-color="#18306C"/>
<stop offset="0.6277" stop-color="#1C6BC6"/>
<stop offset="0.7919" stop-color="#1E82EA"/>
</linearGradient>
<linearGradient id="paint8_linear" x1="7.98643" y1="90.3013" x2="108.704" y2="69.7322" gradientUnits="userSpaceOnUse">
<stop offset="0.2056" stop-color="#241645"/>
<stop offset="0.3004" stop-color="#2A164F"/>
<stop offset="0.4605" stop-color="#3B1669"/>
<stop offset="0.6665" stop-color="#571694"/>
<stop offset="0.9077" stop-color="#7C15CF"/>
<stop offset="1" stop-color="#8C15E8"/>
</linearGradient>
<linearGradient id="paint9_linear" x1="156.042" y1="82.2603" x2="252.757" y2="62.5088" gradientUnits="userSpaceOnUse">
<stop stop-color="#8C15E8"/>
<stop offset="0.0923" stop-color="#7C15CF"/>
<stop offset="0.3335" stop-color="#571694"/>
<stop offset="0.5395" stop-color="#3B1669"/>
<stop offset="0.6996" stop-color="#2A164F"/>
<stop offset="0.7944" stop-color="#241645"/>
</linearGradient>
<linearGradient id="paint10_linear" x1="137.498" y1="169.179" x2="260.359" y2="84.5334" gradientUnits="userSpaceOnUse">
<stop stop-color="#19EDD0"/>
<stop offset="0.126" stop-color="#24D9D2"/>
<stop offset="0.3846" stop-color="#3FA5D8"/>
<stop offset="0.7496" stop-color="#6C52E1"/>
<stop offset="1" stop-color="#8C15E8"/>
</linearGradient>
<linearGradient id="paint11_linear" x1="58.6125" y1="156.404" x2="-8.41099" y2="134.211" gradientUnits="userSpaceOnUse">
<stop stop-color="#19EDD0"/>
<stop offset="1" stop-color="#8C15E8"/>
</linearGradient>
<linearGradient id="paint12_linear" x1="7.21741" y1="211.062" x2="83.2194" y2="195.541" gradientUnits="userSpaceOnUse">
<stop stop-color="#8C15E8"/>
<stop offset="1" stop-color="#1E82EA"/>
</linearGradient>
<linearGradient id="paint13_linear" x1="168.596" y1="214.296" x2="289.956" y2="135.707" gradientUnits="userSpaceOnUse">
<stop offset="0.0412" stop-color="#1E82EA"/>
<stop offset="0.8496" stop-color="#8C15E8"/>
</linearGradient>
<linearGradient id="paint14_linear" x1="27.4479" y1="261.079" x2="85.9848" y2="236.431" gradientUnits="userSpaceOnUse">
<stop offset="0.0412" stop-color="#241645"/>
<stop offset="1" stop-color="#8C15E8"/>
</linearGradient>
<linearGradient id="paint15_linear" x1="241.994" y1="204.011" x2="286.862" y2="181.93" gradientUnits="userSpaceOnUse">
<stop stop-color="#8C15E8"/>
<stop offset="0.9588" stop-color="#241645"/>
</linearGradient>
</defs>
</svg>
